<?xml version="1.0" encoding="UTF-8"?>
<svg xmlns="http://www.w3.org/2000/svg" width="1600" height="1100" viewBox="0 0 1600 1100">
<style>
.title{font:700 44px Arial,sans-serif;fill:#163a6b}
.subtitle{font:20px Arial,sans-serif;fill:#64748b}
.head{font:700 24px Arial,sans-serif;fill:white}
.feature{font:600 20px Arial,sans-serif;fill:#1f2937}
.cell{font:700 22px Arial,sans-serif}
.winner{font:700 20px Arial,sans-serif;fill:#0f172a}
.summaryH{font:700 30px Arial,sans-serif;fill:#163a6b}
.summaryT{font:20px Arial,sans-serif;fill:#334155}
</style>

<rect width="100%" height="100%" fill="white"/>

<text x="800" y="70" text-anchor="middle" class="title">Originality.ai vs Copyleaks Features</text>
<text x="800" y="110" text-anchor="middle" class="subtitle">Professional SaaS Feature Comparison</text>

<!-- Header -->
<rect x="70" y="150" width="350" height="70" rx="10" fill="#1e3a5f"/>
<rect x="420" y="150" width="380" height="70" rx="10" fill="#2563eb"/>
<rect x="800" y="150" width="380" height="70" rx="10" fill="#0f766e"/>
<rect x="1180" y="150" width="350" height="70" rx="10" fill="#1e3a5f"/>

<text x="245" y="194" text-anchor="middle" class="head">Feature</text>
<text x="610" y="194" text-anchor="middle" class="head">Originality.ai</text>
<text x="990" y="194" text-anchor="middle" class="head">Copyleaks</text>
<text x="1355" y="194" text-anchor="middle" class="head">Winner</text>

<!-- Table -->
<g>
<rect x="70" y="220" width="1460" height="560" fill="white" stroke="#dbe4f0"/>
<rect x="70" y="220" width="1460" height="70" fill="#f8fafc" stroke="#dbe4f0"/><text x="95" y="264" class="feature">AI Detection</text><text x="610" y="264" text-anchor="middle" fill="#16a34a" class="cell">✓</text><text x="990" y="264" text-anchor="middle" fill="#16a34a" class="cell">✓</text><text x="1355" y="264" text-anchor="middle" class="winner">Tie</text><rect x="70" y="290" width="1460" height="70" fill="white" stroke="#dbe4f0"/><text x="95" y="334" class="feature">Plagiarism Detection</text><text x="610" y="334" text-anchor="middle" fill="#16a34a" class="cell">✓</text><text x="990" y="334" text-anchor="middle" fill="#16a34a" class="cell">✓</text><text x="1355" y="334" text-anchor="middle" class="winner">Tie</text><rect x="70" y="360" width="1460" height="70" fill="#f8fafc" stroke="#dbe4f0"/><text x="95" y="404" class="feature">Source Code Detection</text><text x="610" y="404" text-anchor="middle" fill="#ef4444" class="cell">✗</text><text x="990" y="404" text-anchor="middle" fill="#16a34a" class="cell">✓</text><text x="1355" y="404" text-anchor="middle" class="winner">Copyleaks</text><rect x="70" y="430" width="1460" height="70" fill="white" stroke="#dbe4f0"/><text x="95" y="474" class="feature">Website Scanning</text><text x="610" y="474" text-anchor="middle" fill="#16a34a" class="cell">✓</text><text x="990" y="474" text-anchor="middle" fill="#f59e0b" class="cell">⚠</text><text x="1355" y="474" text-anchor="middle" class="winner">Originality.ai</text><rect x="70" y="500" width="1460" height="70" fill="#f8fafc" stroke="#dbe4f0"/><text x="95" y="544" class="feature">API Access</text><text x="610" y="544" text-anchor="middle" fill="#16a34a" class="cell">✓</text><text x="990" y="544" text-anchor="middle" fill="#16a34a" class="cell">✓</text><text x="1355" y="544" text-anchor="middle" class="winner">Tie</text><rect x="70" y="570" width="1460" height="70" fill="white" stroke="#dbe4f0"/><text x="95" y="614" class="feature">Chrome Extension</text><text x="610" y="614" text-anchor="middle" fill="#16a34a" class="cell">✓</text><text x="990" y="614" text-anchor="middle" fill="#f59e0b" class="cell">⚠</text><text x="1355" y="614" text-anchor="middle" class="winner">Originality.ai</text><rect x="70" y="640" width="1460" height="70" fill="#f8fafc" stroke="#dbe4f0"/><text x="95" y="684" class="feature">Enterprise Controls</text><text x="610" y="684" text-anchor="middle" fill="#f59e0b" class="cell">⚠</text><text x="990" y="684" text-anchor="middle" fill="#16a34a" class="cell">✓</text><text x="1355" y="684" text-anchor="middle" class="winner">Copyleaks</text><rect x="70" y="710" width="1460" height="70" fill="white" stroke="#dbe4f0"/><text x="95" y="754" class="feature">Multi-Language Support</text><text x="610" y="754" text-anchor="middle" fill="#f59e0b" class="cell">⚠</text><text x="990" y="754" text-anchor="middle" fill="#16a34a" class="cell">✓</text><text x="1355" y="754" text-anchor="middle" class="winner">Copyleaks</text>
</g>

<!-- Summary -->
<rect x="90" y="840" width="620" height="180" rx="18" fill="#f8fbff" stroke="#cdddf5"/>
<rect x="890" y="840" width="620" height="180" rx="18" fill="#f8fbff" stroke="#cdddf5"/>

<text x="120" y="900" class="summaryH">Best for Publishers → Originality.ai</text>
<text x="120" y="945" class="summaryT">Strong website scanning, publisher-focused workflows,</text>
<text x="120" y="980" class="summaryT">Chrome extension support, and content quality analysis.</text>

<text x="920" y="900" class="summaryH">Best for Enterprises → Copyleaks</text>
<text x="920" y="945" class="summaryT">Broader enterprise controls, source code detection,</text>
<text x="920" y="980" class="summaryT">and stronger multilingual support.</text>

</svg>
